<svg width="12" height="12" viewBox="0 0 12 12" fill="none" xmlns="http://www.w3.org/2000/svg">
<path d="M2.70877 7.39219L1.81486 11.2624C1.78811 11.3794 1.79704 11.5017 1.8405 11.6135C1.88395 11.7254 1.95992 11.8216 2.05861 11.8898C2.1573 11.958 2.27417 11.9951 2.39413 11.9962C2.51409 11.9973 2.63163 11.9624 2.73157 11.8961L6.00006 9.72033L9.26615 11.8985C9.36828 11.9669 9.48897 12.0023 9.61189 11.9999C9.7348 11.9975 9.85401 11.9573 9.95337 11.8849C10.0527 11.8125 10.1275 11.7113 10.1674 11.5951C10.2074 11.4788 10.2107 11.353 10.1769 11.2348L9.08016 7.39459L11.8015 4.94525C11.8887 4.86675 11.9509 4.76443 11.9805 4.65094C12.0102 4.53744 12.0059 4.41774 11.9682 4.30665C11.9306 4.19556 11.8612 4.09795 11.7686 4.02589C11.6761 3.95382 11.5645 3.91047 11.4475 3.90118L8.02786 3.62877L6.54601 0.352577C6.49843 0.247478 6.42158 0.158323 6.32464 0.0957902C6.22771 0.033258 6.11481 0 5.99946 0C5.88411 0 5.7712 0.033258 5.67427 0.0957902C5.57734 0.158323 5.50048 0.247478 5.45291 0.352577L3.97225 3.62877L0.552578 3.89998C0.437588 3.90909 0.327661 3.95116 0.235965 4.02116C0.144268 4.09115 0.0746902 4.18609 0.0355651 4.29462C-0.0035601 4.40315 -0.0105735 4.52066 0.0153649 4.63308C0.0413032 4.74549 0.0990936 4.84804 0.181814 4.92845L2.70997 7.39219H2.70877ZM4.42101 4.80004C4.52896 4.7907 4.63237 4.7523 4.72026 4.68891C4.80814 4.62553 4.87722 4.53952 4.92016 4.44002L6.00006 2.05668L7.07995 4.44002C7.1227 4.53918 7.19141 4.62497 7.27884 4.68833C7.36627 4.7517 7.46918 4.79029 7.57671 4.80004L9.95968 4.98605L7.99787 6.75255C7.91421 6.82762 7.85332 6.92469 7.82213 7.03268C7.79095 7.14068 7.79072 7.25527 7.82148 7.36339L8.57261 9.99394L6.33243 8.49865C6.23396 8.43312 6.11833 8.39816 6.00006 8.39816C5.88179 8.39816 5.76615 8.43312 5.66769 8.49865L3.32551 10.0587L3.96025 7.33339C3.98335 7.23306 3.98025 7.12848 3.95125 7.0297C3.92225 6.93092 3.86833 6.84126 3.79467 6.76935L1.96724 4.99205L4.42101 4.80004Z" fill="#FFB647"/>
</svg>
