<svg width="77" height="36" viewBox="0 0 77 36" fill="none" xmlns="http://www.w3.org/2000/svg">
<path d="M24.5068 29H10.9863C9.53125 29 8.20801 28.7266 7.0166 28.1797C5.8252 27.6328 4.80469 26.8857 3.95508 25.9385C3.11523 24.9912 2.46582 23.8779 2.00684 22.5986C1.54785 21.3193 1.31836 19.9521 1.31836 18.4971C1.31836 17.0518 1.54785 15.6943 2.00684 14.4248C2.46582 13.1455 3.11523 12.0322 3.95508 11.085C4.80469 10.1279 5.8252 9.37598 7.0166 8.8291C8.20801 8.27246 9.53125 7.99414 10.9863 7.99414H24.5068V10.9971H10.9863C9.95117 10.9971 9.01855 11.1973 8.18848 11.5977C7.36816 11.9883 6.66992 12.5254 6.09375 13.209C5.52734 13.8828 5.08789 14.6738 4.77539 15.582C4.47266 16.4902 4.32129 17.4619 4.32129 18.4971C4.32129 19.5322 4.47266 20.5088 4.77539 21.4268C5.08789 22.335 5.52734 23.1309 6.09375 23.8145C6.66992 24.4883 7.36816 25.0205 8.18848 25.4111C9.01855 25.8018 9.95117 25.9971 10.9863 25.9971H24.5068V29ZM75.3809 22.9941C75.3809 23.834 75.2197 24.6201 74.8975 25.3525C74.585 26.0752 74.1553 26.71 73.6084 27.2568C73.0713 27.7939 72.4365 28.2188 71.7041 28.5312C70.9717 28.8438 70.1953 29 69.375 29H55.1514V25.9971H69.375C69.7852 25.9971 70.1709 25.9189 70.5322 25.7627C70.9033 25.6064 71.2256 25.3916 71.499 25.1182C71.7725 24.8447 71.9873 24.5273 72.1436 24.166C72.2998 23.7949 72.3779 23.4043 72.3779 22.9941C72.3779 22.584 72.2998 22.1982 72.1436 21.8369C71.9873 21.4756 71.7725 21.1582 71.499 20.8848C71.2256 20.6113 70.9033 20.3965 70.5322 20.2402C70.1709 20.084 69.7852 20.0059 69.375 20.0059H55.1514V17.0029H66.3721C66.7822 17.0029 67.168 16.9248 67.5293 16.7686C67.9004 16.6123 68.2227 16.3975 68.4961 16.124C68.7695 15.8506 68.9844 15.5332 69.1406 15.1719C69.2969 14.8008 69.375 14.4102 69.375 14C69.375 13.5898 69.2969 13.2041 69.1406 12.8428C68.9844 12.4717 68.7695 12.1494 68.4961 11.876C68.2227 11.6025 67.9004 11.3877 67.5293 11.2314C67.168 11.0752 66.7822 10.9971 66.3721 10.9971H53.6572V29H50.6543V7.99414H66.3721C67.1924 7.99414 67.9688 8.15527 68.7012 8.47754C69.4336 8.79004 70.0684 9.21973 70.6055 9.7666C71.1523 10.3037 71.582 10.9385 71.8945 11.6709C72.2168 12.4033 72.3779 13.1797 72.3779 14C72.3779 14.6348 72.2852 15.2354 72.0996 15.8018C71.9141 16.3584 71.665 16.876 71.3525 17.3545C71.9385 17.5596 72.4756 17.8477 72.9639 18.2188C73.4619 18.5898 73.8867 19.0195 74.2383 19.5078C74.5996 19.9961 74.8779 20.5381 75.0732 21.1338C75.2783 21.7197 75.3809 22.3398 75.3809 22.9941Z" fill="#F9F9F9"/>
<path d="M34.35 17.45C34.1423 17.45 33.9393 17.5116 33.7667 17.627C33.594 17.7423 33.4594 17.9063 33.3799 18.0982C33.3005 18.29 33.2797 18.5012 33.3202 18.7048C33.3607 18.9085 33.4607 19.0956 33.6075 19.2425C33.7544 19.3893 33.9415 19.4893 34.1452 19.5298C34.3488 19.5703 34.56 19.5495 34.7518 19.4701C34.9437 19.3906 35.1077 19.256 35.223 19.0833C35.3384 18.9107 35.4 18.7077 35.4 18.5C35.4 18.2215 35.2894 17.9545 35.0925 17.7575C34.8955 17.5606 34.6285 17.45 34.35 17.45ZM34.35 21.65C34.1423 21.65 33.9393 21.7116 33.7667 21.827C33.594 21.9423 33.4594 22.1063 33.3799 22.2982C33.3005 22.49 33.2797 22.7012 33.3202 22.9048C33.3607 23.1085 33.4607 23.2956 33.6075 23.4425C33.7544 23.5893 33.9415 23.6893 34.1452 23.7298C34.3488 23.7703 34.56 23.7495 34.7518 23.6701C34.9437 23.5906 35.1077 23.456 35.223 23.2833C35.3384 23.1107 35.4 22.9077 35.4 22.7C35.4 22.4215 35.2894 22.1545 35.0925 21.9575C34.8955 21.7606 34.6285 21.65 34.35 21.65ZM34.35 13.25C34.1423 13.25 33.9393 13.3116 33.7667 13.427C33.594 13.5423 33.4594 13.7063 33.3799 13.8982C33.3005 14.09 33.2797 14.3012 33.3202 14.5048C33.3607 14.7085 33.4607 14.8956 33.6075 15.0425C33.7544 15.1893 33.9415 15.2893 34.1452 15.3298C34.3488 15.3703 34.56 15.3495 34.7518 15.2701C34.9437 15.1906 35.1077 15.056 35.223 14.8833C35.3384 14.7107 35.4 14.5077 35.4 14.3C35.4 14.0215 35.2894 13.7545 35.0925 13.5575C34.8955 13.3606 34.6285 13.25 34.35 13.25ZM40.65 13.25C40.4423 13.25 40.2393 13.3116 40.0667 13.427C39.894 13.5423 39.7594 13.7063 39.6799 13.8982C39.6005 14.09 39.5797 14.3012 39.6202 14.5048C39.6607 14.7085 39.7607 14.8956 39.9075 15.0425C40.0544 15.1893 40.2415 15.2893 40.4452 15.3298C40.6488 15.3703 40.86 15.3495 41.0518 15.2701C41.2437 15.1906 41.4077 15.056 41.523 14.8833C41.6384 14.7107 41.7 14.5077 41.7 14.3C41.7 14.0215 41.5894 13.7545 41.3925 13.5575C41.1955 13.3606 40.9285 13.25 40.65 13.25ZM42.75 8H32.25C30.8576 8 29.5223 8.55312 28.5377 9.53769C27.5531 10.5223 27 11.8576 27 13.25V23.75C27 25.1424 27.5531 26.4777 28.5377 27.4623C29.5223 28.4469 30.8576 29 32.25 29H42.75C44.1424 29 45.4777 28.4469 46.4623 27.4623C47.4469 26.4777 48 25.1424 48 23.75V13.25C48 11.8576 47.4469 10.5223 46.4623 9.53769C45.4777 8.55312 44.1424 8 42.75 8V8ZM45.9 23.75C45.9 24.5854 45.5681 25.3866 44.9774 25.9774C44.3866 26.5681 43.5854 26.9 42.75 26.9H32.25C31.4146 26.9 30.6134 26.5681 30.0226 25.9774C29.4319 25.3866 29.1 24.5854 29.1 23.75V13.25C29.1 12.4146 29.4319 11.6134 30.0226 11.0226C30.6134 10.4319 31.4146 10.1 32.25 10.1H42.75C43.5854 10.1 44.3866 10.4319 44.9774 11.0226C45.5681 11.6134 45.9 12.4146 45.9 13.25V23.75ZM40.65 17.45C40.4423 17.45 40.2393 17.5116 40.0667 17.627C39.894 17.7423 39.7594 17.9063 39.6799 18.0982C39.6005 18.29 39.5797 18.5012 39.6202 18.7048C39.6607 18.9085 39.7607 19.0956 39.9075 19.2425C40.0544 19.3893 40.2415 19.4893 40.4452 19.5298C40.6488 19.5703 40.86 19.5495 41.0518 19.4701C41.2437 19.3906 41.4077 19.256 41.523 19.0833C41.6384 18.9107 41.7 18.7077 41.7 18.5C41.7 18.2215 41.5894 17.9545 41.3925 17.7575C41.1955 17.5606 40.9285 17.45 40.65 17.45ZM40.65 21.65C40.4423 21.65 40.2393 21.7116 40.0667 21.827C39.894 21.9423 39.7594 22.1063 39.6799 22.2982C39.6005 22.49 39.5797 22.7012 39.6202 22.9048C39.6607 23.1085 39.7607 23.2956 39.9075 23.4425C40.0544 23.5893 40.2415 23.6893 40.4452 23.7298C40.6488 23.7703 40.86 23.7495 41.0518 23.6701C41.2437 23.5906 41.4077 23.456 41.523 23.2833C41.6384 23.1107 41.7 22.9077 41.7 22.7C41.7 22.4215 41.5894 22.1545 41.3925 21.9575C41.1955 21.7606 40.9285 21.65 40.65 21.65Z" fill="#F9F9F9"/>
</svg>
